<svg width="24" height="24" viewBox="0 0 24 24">
<path d="M12 20.367a1.217 1.217 0 0 1-1.246-1.11l-.133-1.097c-1.332-.379-2.113-1.367-2.316-2.933l-1.2-9.247a4.748 4.748 0 0 0-.78-.054 4.177 4.177 0 0 0-1.141.148v14.02h-2.36V8.824c0-1.531.684-2.61 1.938-3.058v-.727c0-.84.508-1.406 1.27-1.406.757 0 1.234.472 1.355 1.336l.093.672c1.368.386 2.176 1.488 2.407 3.273l1.11 8.91a5.26 5.26 0 0 0 2.007 0l1.11-8.91c.23-1.785 1.038-2.887 2.406-3.273l.093-.672c.121-.86.606-1.336 1.356-1.336.754 0 1.27.566 1.27 1.406v.727c1.253.449 1.937 1.527 1.937 3.058v11.27H18.82V6.07a4.359 4.359 0 0 0-1.144-.144 4.005 4.005 0 0 0-.778.054L15.7 15.227c-.199 1.539-1 2.55-2.316 2.933l-.137 1.102A1.184 1.184 0 0 1 12 20.367Zm-.95-2.101.122.945a.79.79 0 0 0 .828.734.768.768 0 0 0 .57-.195.764.764 0 0 0 .258-.543l.121-.945a5.952 5.952 0 0 1-1.898 0Zm8.188 1.414h1.52V8.824c0-1.297-.524-2.191-1.52-2.61Zm-16 0h1.524V6.215c-.996.418-1.52 1.312-1.52 2.61ZM7.543 6.098l1.172 9.074c.172 1.312.789 2.164 1.844 2.535L9.465 8.961c-.195-1.54-.828-2.48-1.922-2.863Zm8.914 0c-1.094.382-1.73 1.324-1.926 2.863l-1.09 8.738c1.055-.37 1.676-1.219 1.844-2.531ZM5.18 5.633A4.69 4.69 0 0 1 6.324 5.5c.239-.004.48.012.719.043l-.074-.527c-.09-.641-.407-.965-.938-.965-.535 0-.851.375-.851.984ZM17.676 5.5c.387-.004.77.043 1.144.133v-.594c0-.605-.328-.984-.851-.984-.52 0-.848.324-.938.968l-.074.524c.238-.031.48-.047.719-.043Zm0 0" fill="#FFF"/>
</svg>
